<svg xmlns="http://www.w3.org/2000/svg" viewBox="-2 -1 32 22" shape-rendering="crispEdges">
<rect x="8" y="1" width="4" height="1" fill="#14161a"/>
<rect x="8" y="1" width="1" height="1" fill="#2a2d35" opacity="0.9"/>
<rect x="7" y="1" width="1" height="1" fill="#2a1d08"/>
<rect x="12" y="1" width="1" height="1" fill="#2a1d08"/>
<rect x="8" y="0" width="4" height="1" fill="#2a1d08"/>
<rect x="8" y="2" width="4" height="1" fill="#f4c03a"/>
<rect x="7" y="2" width="1" height="1" fill="#2a1d08"/>
<rect x="12" y="2" width="1" height="1" fill="#2a1d08"/>
<rect x="7" y="3" width="6" height="1" fill="#2a1d08"/>
<rect x="9.7" y="2.2" width="0.6" height="0.6" fill="#ffe574"/>
<rect x="20" y="10" width="1" height="1" fill="#b08a3a"/>
<rect x="21" y="9" width="1" height="1" fill="#b08a3a"/>
<rect x="22" y="8" width="1" height="1" fill="#b08a3a"/>
<rect x="23" y="7" width="1" height="1" fill="#b08a3a"/>
<rect x="24" y="6" width="1" height="1" fill="#b08a3a"/>
<rect x="21" y="9" width="1" height="0.3" fill="#b08a3a" opacity="0.6"/>
<rect x="23" y="7" width="1" height="0.3" fill="#b08a3a" opacity="0.6"/>
<rect x="25" y="4" width="1" height="1" fill="#f4c03a"/>
<rect x="24" y="5" width="3" height="1" fill="#f4c03a"/>
<rect x="25" y="6" width="1" height="1" fill="#f4c03a"/>
<rect x="25" y="5" width="1" height="1" fill="#ffe574"/>
<rect x="25" y="5" width="1" height="1" fill="#ffffff" opacity="0.9"/>
<rect x="27" y="3" width="0.7" height="0.7" fill="#e8e6e0"/>
<rect x="22" y="3" width="0.6" height="0.6" fill="#f4c03a"/>
<rect x="28" y="7" width="0.6" height="0.6" fill="#e8e6e0"/>
<rect x="5" y="10" width="2" height="1" fill="#2a1d08"/>
<rect x="16" y="10" width="3" height="1" fill="#2a1d08"/>
<rect x="4" y="11" width="1" height="1" fill="#2a1d08"/>
<rect x="19" y="11" width="1" height="1" fill="#2a1d08"/>
<rect x="3" y="12" width="1" height="1" fill="#2a1d08"/>
<rect x="20" y="12" width="1" height="1" fill="#2a1d08"/>
<rect x="3" y="13" width="1" height="2" fill="#2a1d08"/>
<rect x="20" y="13" width="1" height="3" fill="#2a1d08"/>
<rect x="3" y="15" width="1" height="1" fill="#2a1d08"/>
<rect x="4" y="16" width="1" height="1" fill="#2a1d08"/>
<rect x="19" y="16" width="1" height="1" fill="#2a1d08"/>
<rect x="5" y="17" width="14" height="1" fill="#2a1d08"/>
<rect x="5" y="11" width="11" height="1" fill="#ffe574"/>
<rect x="4" y="12" width="16" height="1" fill="#f4d03a"/>
<rect x="4" y="13" width="16" height="1" fill="#f4d03a"/>
<rect x="4" y="14" width="16" height="1" fill="#f4d03a"/>
<rect x="4" y="15" width="16" height="1" fill="#d9a92a"/>
<rect x="5" y="16" width="14" height="1" fill="#c09022"/>
<rect x="17" y="11" width="2" height="1" fill="#ffe574"/>
<rect x="18" y="10" width="1" height="1" fill="#2a1d08"/>
<rect x="7" y="4" width="5" height="1" fill="#2a1d08"/>
<rect x="6" y="5" width="1" height="1" fill="#2a1d08"/>
<rect x="12" y="5" width="1" height="1" fill="#2a1d08"/>
<rect x="5" y="6" width="1" height="1" fill="#2a1d08"/>
<rect x="13" y="6" width="1" height="1" fill="#2a1d08"/>
<rect x="5" y="7" width="1" height="1" fill="#2a1d08"/>
<rect x="13" y="7" width="1" height="3" fill="#2a1d08"/>
<rect x="5" y="8" width="1" height="2" fill="#2a1d08"/>
<rect x="7" y="5" width="5" height="1" fill="#ffe574"/>
<rect x="6" y="6" width="7" height="1" fill="#f4d03a"/>
<rect x="6" y="7" width="7" height="1" fill="#f4d03a"/>
<rect x="6" y="8" width="7" height="1" fill="#f4d03a"/>
<rect x="6" y="9" width="7" height="1" fill="#d9a92a"/>
<rect x="9" y="6" width="1" height="2" fill="#2a1d08"/>
<rect x="9" y="6" width="1" height="1" fill="#e8e6e0" opacity="0.85"/>
<rect x="11" y="5" width="1" height="1" fill="#e8e6e0"/>
<rect x="11" y="8" width="1" height="1" fill="#ff9fb0" opacity="0.85"/>
<rect x="2" y="6" width="1" height="1" fill="#2a1d08"/>
<rect x="3" y="6" width="3" height="1" fill="#f08a2a"/>
<rect x="2" y="7" width="4" height="1" fill="#c46a18"/>
<rect x="1" y="7" width="1" height="1" fill="#2a1d08"/>
<rect x="3" y="6" width="1" height="1" fill="#ffc56a"/>
<rect x="2" y="8" width="1" height="1" fill="#2a1d08"/>
<rect x="3" y="8" width="3" height="1" fill="#f08a2a"/>
<rect x="2" y="9" width="4" height="1" fill="#2a1d08"/>
<rect x="10" y="13" width="6" height="1" fill="#d9a92a"/>
<rect x="10" y="14" width="1" height="1" fill="#2a1d08"/>
<rect x="16" y="14" width="1" height="1" fill="#2a1d08"/>
<rect x="11" y="14" width="5" height="1" fill="#d9a92a"/>
<rect x="11" y="15" width="5" height="1" fill="#2a1d08"/>
<rect x="12" y="13" width="1" height="1" fill="#c09022" opacity="0.8"/>
<rect x="14" y="13" width="1" height="1" fill="#c09022" opacity="0.8"/>
<rect x="17" y="12" width="1" height="1" fill="#d9a92a"/>
<rect x="18" y="11" width="1" height="1" fill="#d9a92a"/>
<rect x="19" y="11" width="1" height="1" fill="#2a1d08"/>
<rect x="18" y="12" width="1" height="1" fill="#2a1d08"/>
<rect x="6" y="12" width="4" height="2" fill="#0a0b0d"/>
<rect x="6" y="12" width="4" height="1" fill="#14161a"/>
<rect x="6.5" y="12.3" width="0.7" height="0.7" fill="#f4c03a"/>
<rect x="7.7" y="12.3" width="0.7" height="0.7" fill="#e8e6e0"/>
<rect x="8.9" y="12.3" width="0.7" height="0.7" fill="#f4c03a" opacity="0.5"/>
<rect x="6.3" y="13.2" width="0.5" height="0.5" fill="#e8e6e0" opacity="0.9"/>
<rect x="7.0" y="13.4" width="0.5" height="0.3" fill="#e8e6e0" opacity="0.7"/>
<rect x="7.7" y="13.1" width="0.5" height="0.6" fill="#e8e6e0" opacity="0.9"/>
<rect x="8.4" y="13.3" width="0.5" height="0.4" fill="#e8e6e0" opacity="0.7"/>
<rect x="9.1" y="13.1" width="0.5" height="0.6" fill="#e8e6e0" opacity="0.9"/>
<rect x="6" y="12.7" width="4" height="0.1" fill="#e8e6e0" opacity="0.25"/>
<rect x="7" y="18" width="3" height="1" fill="#f08a2a"/>
<rect x="14" y="18" width="3" height="1" fill="#f08a2a"/>
<rect x="7" y="19" width="3" height="1" fill="#c46a18"/>
<rect x="14" y="19" width="3" height="1" fill="#c46a18"/>
<rect x="7" y="18" width="1" height="1" fill="#ffc56a" opacity="0.7"/>
<rect x="14" y="18" width="1" height="1" fill="#ffc56a" opacity="0.7"/>
</svg>
